<svg width="523" height="125" viewBox="0 0 523 125" fill="none" xmlns="http://www.w3.org/2000/svg">
<circle cx="87.8259" cy="14.8122" r="8.97044" fill="#9C9C9C"/>
<circle cx="90.9565" cy="42.558" r="5.84121" fill="#9C9C9C"/>
<path d="M58.4124 0C61.0548 23.2258 66.2146 72.4727 77.3963 83.6545C73.1545 88.5917 63.1271 101.721 56.9521 114.738C50.7771 101.721 40.7496 88.5918 36.5078 83.6545C47.6896 72.4728 55.7699 23.2258 58.4124 0Z" fill="#9C9C9C"/>
<path d="M50.739 4.36139C50.2951 7.83515 49.7599 11.6836 49.1382 15.757C28.7862 22.6656 14.1858 41.4893 14.1858 63.628C14.1858 63.8459 14.1867 64.0634 14.1895 64.2807C14.187 64.4801 14.1858 64.6797 14.1858 64.8796C14.1858 93.1073 38.4698 115.99 68.4257 115.99C87.8268 113.487 87.6182 112.861 103.89 104.725C94.0853 114.739 85.318 124.752 60.9155 124.752C27.388 124.752 0 97.7813 0 64.2538C0 34.1212 21.9538 9.11635 50.739 4.36139Z" fill="#9C9C9C"/>
<path d="M98.6866 16.8934C107.416 23.9027 108.897 27.7462 112.861 34.6305C106.602 27.7462 98.6866 22.7395 96.7793 21.3007C97.7142 20.0131 98.3775 18.5162 98.6866 16.8934Z" fill="#9C9C9C"/>
<path d="M65.9773 3.77344C70.9282 4.19932 75.7094 5.21866 80.2491 6.76127C78.302 8.59465 77.0195 11.1261 76.8028 13.956C73.6425 13.3302 70.3783 12.9818 67.0383 12.939C66.6515 9.69093 66.2986 6.60974 65.9773 3.77344Z" fill="#9C9C9C"/>
<path d="M155.89 45.6584C157.811 45.6961 159.826 45.8091 161.935 45.9974C164.082 46.1857 166.173 46.5435 168.207 47.0708L167.755 51.8731C166.135 51.8354 164.252 51.7978 162.105 51.7601C159.996 51.6848 157.962 51.6471 156.003 51.6471C154.798 51.6471 153.762 51.6848 152.896 51.7601C152.067 51.8354 151.389 52.0238 150.862 52.3251C150.335 52.6264 149.939 53.0972 149.676 53.7375C149.45 54.3401 149.337 55.1876 149.337 56.2799C149.337 57.9748 149.676 59.1801 150.353 59.8957C151.069 60.6113 152.218 61.1763 153.8 61.5906L161.483 63.8505C164.572 64.7921 166.7 66.1669 167.868 67.9748C169.035 69.7451 169.619 72.118 169.619 75.0935C169.619 77.3157 169.355 79.1424 168.828 80.5737C168.301 82.005 167.491 83.1161 166.399 83.907C165.306 84.698 163.875 85.263 162.105 85.602C160.335 85.9409 158.207 86.1104 155.721 86.1104C154.44 86.1104 152.67 86.0351 150.41 85.8845C148.188 85.7338 145.645 85.3571 142.783 84.7545L143.235 79.6698C145.457 79.7451 147.321 79.8204 148.828 79.8957C150.335 79.9334 151.634 79.9522 152.726 79.9522C153.819 79.9522 154.836 79.9522 155.777 79.9522C157.51 79.9522 158.866 79.8392 159.845 79.6133C160.824 79.3873 161.502 78.9165 161.879 78.2008C162.293 77.4852 162.5 76.4494 162.5 75.0935C162.5 73.9259 162.35 73.0219 162.048 72.3816C161.785 71.7036 161.333 71.1763 160.692 70.7997C160.052 70.423 159.224 70.1029 158.207 69.8392L150.24 67.4098C147.303 66.5059 145.231 65.1688 144.026 63.3985C142.858 61.6283 142.274 59.2554 142.274 56.2799C142.274 54.0577 142.538 52.2497 143.065 50.8561C143.593 49.4249 144.402 48.3514 145.495 47.6358C146.587 46.8825 147.981 46.374 149.676 46.1104C151.408 45.8091 153.48 45.6584 155.89 45.6584ZM193.133 56.9579C196.56 56.9579 199.027 58.2196 200.534 60.7432C202.041 63.2667 202.794 66.9202 202.794 71.7036C202.794 75.3571 202.398 78.2385 201.608 80.3477C200.854 82.4193 199.705 83.907 198.161 84.811C196.617 85.6773 194.658 86.1104 192.285 86.1104C190.402 86.1104 188.557 85.8468 186.749 85.3195C184.979 84.7545 183.34 83.8882 181.833 82.7206L182.285 79.3308C183.754 79.7451 185.073 80.1029 186.24 80.4042C187.408 80.7055 188.688 80.8562 190.082 80.8562C191.476 80.8562 192.568 80.6302 193.359 80.1782C194.188 79.6886 194.79 78.7846 195.167 77.4664C195.543 76.1481 195.732 74.246 195.732 71.7601C195.732 69.3119 195.562 67.4098 195.223 66.0539C194.884 64.698 194.319 63.7564 193.528 63.229C192.775 62.6641 191.777 62.3816 190.534 62.3816C189.178 62.3816 187.898 62.6829 186.692 63.2855C185.487 63.8505 184.093 64.698 182.511 65.8279L181.72 62.2121C182.587 61.1951 183.623 60.2912 184.828 59.5002C186.071 58.7093 187.408 58.0878 188.839 57.6358C190.27 57.1838 191.702 56.9579 193.133 56.9579ZM181.438 57.6358L182.116 63.0031L182.737 63.794V81.7037L182.455 82.3816C182.568 83.4739 182.643 84.5662 182.681 85.6585C182.719 86.7884 182.737 87.9372 182.737 89.1048V96.3929H175.901V57.6358H181.438ZM227.585 56.9579C232.745 56.9579 235.325 59.5002 235.325 64.585V85.376H228.432V66.6754C228.432 65.1688 228.169 64.133 227.641 63.568C227.152 63.0031 226.285 62.7206 225.042 62.7206C223.649 62.7206 222.218 63.0219 220.749 63.6245C219.28 64.2272 217.509 65.1311 215.438 66.3364L214.929 62.3816C217.039 60.649 219.148 59.3119 221.257 58.3703C223.404 57.4287 225.513 56.9579 227.585 56.9579ZM216.172 45.8279L216.229 55.9974C216.229 57.391 216.154 58.7093 216.003 59.9522C215.89 61.1575 215.72 62.1933 215.494 63.0596L216.172 63.8505V85.376H209.336V45.8279H216.172ZM255.199 56.9579C259.681 56.9579 262.902 57.7488 264.86 59.3307C266.819 60.875 267.817 63.1726 267.855 66.2234C267.892 68.7469 267.29 70.6679 266.047 71.9861C264.841 73.2667 262.826 73.907 260.001 73.907H244.182V69.6697H258.137C259.418 69.6697 260.227 69.3308 260.566 68.6528C260.943 67.9748 261.131 67.1462 261.131 66.1669C261.094 64.6226 260.642 63.5492 259.775 62.9466C258.947 62.3439 257.516 62.0426 255.482 62.0426C253.711 62.0426 252.337 62.2874 251.357 62.7771C250.378 63.2667 249.681 64.1518 249.267 65.4324C248.89 66.713 248.702 68.5586 248.702 70.9692C248.702 73.5304 248.947 75.5078 249.436 76.9014C249.926 78.295 250.736 79.2554 251.866 79.7827C252.996 80.2724 254.502 80.5172 256.386 80.5172C257.779 80.5172 259.38 80.4607 261.188 80.3477C263.033 80.2347 264.804 80.0841 266.499 79.8957L267.177 84.246C266.16 84.6603 264.992 84.9993 263.674 85.263C262.355 85.5266 260.981 85.715 259.549 85.828C258.156 85.9786 256.838 86.0539 255.595 86.0539C252.205 86.0539 249.474 85.5643 247.403 84.585C245.369 83.5681 243.881 81.9861 242.939 79.8392C242.035 77.6923 241.583 74.924 241.583 71.5341C241.583 67.8807 242.035 64.9993 242.939 62.8901C243.881 60.7432 245.35 59.2177 247.346 58.3138C249.38 57.4098 251.998 56.9579 255.199 56.9579ZM279.31 57.6358L280.214 63.0596L280.835 63.8505V85.376H273.999V57.6358H279.31ZM292.869 56.9579L292.191 63.2855H290.214C288.745 63.2855 287.257 63.5304 285.751 64.02C284.244 64.5097 282.361 65.2441 280.101 66.2234L279.649 62.2121C281.607 60.5548 283.604 59.2742 285.638 58.3703C287.671 57.4287 289.63 56.9579 291.513 56.9579H292.869ZM309.324 56.9579C313.806 56.9579 317.026 57.7488 318.985 59.3307C320.944 60.875 321.942 63.1726 321.979 66.2234C322.017 68.7469 321.414 70.6679 320.171 71.9861C318.966 73.2667 316.951 73.907 314.126 73.907H298.307V69.6697H312.262C313.542 69.6697 314.352 69.3308 314.691 68.6528C315.068 67.9748 315.256 67.1462 315.256 66.1669C315.219 64.6226 314.767 63.5492 313.9 62.9466C313.072 62.3439 311.64 62.0426 309.606 62.0426C307.836 62.0426 306.461 62.2874 305.482 62.7771C304.503 63.2667 303.806 64.1518 303.392 65.4324C303.015 66.713 302.827 68.5586 302.827 70.9692C302.827 73.5304 303.072 75.5078 303.561 76.9014C304.051 78.295 304.861 79.2554 305.991 79.7827C307.121 80.2724 308.627 80.5172 310.51 80.5172C311.904 80.5172 313.505 80.4607 315.313 80.3477C317.158 80.2347 318.929 80.0841 320.623 79.8957L321.301 84.246C320.284 84.6603 319.117 84.9993 317.799 85.263C316.48 85.5266 315.106 85.715 313.674 85.828C312.281 85.9786 310.962 86.0539 309.719 86.0539C306.33 86.0539 303.599 85.5643 301.527 84.585C299.493 83.5681 298.006 81.9861 297.064 79.8392C296.16 77.6923 295.708 74.924 295.708 71.5341C295.708 67.8807 296.16 64.9993 297.064 62.8901C298.006 60.7432 299.475 59.2177 301.471 58.3138C303.505 57.4098 306.122 56.9579 309.324 56.9579ZM340.61 45.6584C342.531 45.6961 344.546 45.8091 346.655 45.9974C348.802 46.1857 350.892 46.5435 352.926 47.0708L352.474 51.8731C350.855 51.8354 348.971 51.7978 346.824 51.7601C344.715 51.6848 342.681 51.6471 340.723 51.6471C339.518 51.6471 338.482 51.6848 337.615 51.7601C336.787 51.8354 336.109 52.0238 335.582 52.3251C335.054 52.6264 334.659 53.0972 334.395 53.7375C334.169 54.3401 334.056 55.1876 334.056 56.2799C334.056 57.9748 334.395 59.1801 335.073 59.8957C335.789 60.6113 336.937 61.1763 338.519 61.5906L346.203 63.8505C349.292 64.7921 351.42 66.1669 352.587 67.9748C353.755 69.7451 354.339 72.118 354.339 75.0935C354.339 77.3157 354.075 79.1424 353.548 80.5737C353.02 82.005 352.211 83.1161 351.118 83.907C350.026 84.698 348.595 85.263 346.824 85.602C345.054 85.9409 342.926 86.1104 340.44 86.1104C339.16 86.1104 337.389 86.0351 335.13 85.8845C332.907 85.7338 330.365 85.3571 327.502 84.7545L327.954 79.6698C330.177 79.7451 332.041 79.8204 333.548 79.8957C335.054 79.9334 336.354 79.9522 337.446 79.9522C338.538 79.9522 339.555 79.9522 340.497 79.9522C342.229 79.9522 343.585 79.8392 344.565 79.6133C345.544 79.3873 346.222 78.9165 346.598 78.2008C347.013 77.4852 347.22 76.4494 347.22 75.0935C347.22 73.9259 347.069 73.0219 346.768 72.3816C346.504 71.7036 346.052 71.1763 345.412 70.7997C344.772 70.423 343.943 70.1029 342.926 69.8392L334.96 67.4098C332.022 66.5059 329.951 65.1688 328.745 63.3985C327.578 61.6283 326.994 59.2554 326.994 56.2799C326.994 54.0577 327.258 52.2497 327.785 50.8561C328.312 49.4249 329.122 48.3514 330.214 47.6358C331.307 46.8825 332.7 46.374 334.395 46.1104C336.128 45.8091 338.199 45.6584 340.61 45.6584ZM369.553 49.7262V77.0144C369.553 78.182 369.798 79.0106 370.287 79.5003C370.814 79.9899 371.7 80.2347 372.943 80.2347H376.784L377.519 85.037C376.879 85.2253 376.106 85.3948 375.202 85.5455C374.298 85.6961 373.413 85.7903 372.547 85.828C371.681 85.9033 370.946 85.9409 370.344 85.9409C367.933 85.9409 366.05 85.3006 364.694 84.02C363.376 82.7018 362.717 80.8185 362.717 78.3703V49.7262H369.553ZM377.801 57.6358V62.3816H357.801V57.9183L363.225 57.6358H377.801ZM389.522 57.6358V76.3929C389.485 77.7865 389.748 78.7846 390.313 79.3873C390.916 79.9899 391.876 80.2912 393.195 80.2912C394.513 80.2912 395.831 80.0087 397.149 79.4438C398.468 78.8788 400.068 78.0313 401.952 76.9014L402.63 80.9692C400.52 82.6641 398.487 83.9447 396.528 84.811C394.569 85.6773 392.535 86.1104 390.426 86.1104C385.266 86.1104 382.686 83.5681 382.686 78.4833V57.6358H389.522ZM408.11 57.6358V85.376H402.686L401.952 80.0087L401.274 79.2178V57.6358H408.11ZM425.173 56.9579C427.056 56.9579 428.901 57.2215 430.709 57.7488C432.517 58.2385 434.156 59.0671 435.625 60.2347L435.173 63.681C433.704 63.2667 432.385 62.9089 431.218 62.6076C430.05 62.3063 428.751 62.1556 427.319 62.1556C425.963 62.1556 424.871 62.4004 424.043 62.8901C423.252 63.342 422.649 64.2272 422.235 65.5454C421.858 66.8637 421.67 68.7846 421.67 71.3082C421.67 73.7187 421.858 75.5831 422.235 76.9014C422.611 78.182 423.195 79.0859 423.986 79.6133C424.777 80.1029 425.813 80.3477 427.093 80.3477C428.11 80.3477 429.014 80.2347 429.805 80.0087C430.596 79.7451 431.406 79.3684 432.235 78.8788C433.063 78.3515 434.024 77.6923 435.116 76.9014L435.681 80.7432C434.4 82.2121 432.818 83.4739 430.935 84.5285C429.09 85.5455 426.943 86.0539 424.495 86.0539C420.954 86.0539 418.431 84.811 416.924 82.3251C415.417 79.8016 414.664 76.1481 414.664 71.3647C414.664 67.7112 415.041 64.8486 415.794 62.7771C416.585 60.6678 417.753 59.1801 419.297 58.3138C420.879 57.4098 422.837 56.9579 425.173 56.9579ZM441.218 45.8279V85.376H435.85L435.116 80.4042L434.382 79.8392V61.3081L434.721 60.5172C434.57 59.4249 434.476 58.3326 434.438 57.2403C434.4 56.1104 434.382 54.9616 434.382 53.794V45.8279H441.218ZM455.959 57.6358V85.376H449.179V57.6358H455.959ZM454.094 45.6019C455.45 45.6019 456.128 46.2799 456.128 47.6358V50.7996C456.128 52.1556 455.45 52.8336 454.094 52.8336H451.043C449.687 52.8336 449.009 52.1556 449.009 50.7996V47.6358C449.009 46.2799 449.687 45.6019 451.043 45.6019H454.094ZM476.392 56.9579C479.782 56.9579 482.475 57.4287 484.471 58.3703C486.505 59.3119 487.955 60.8562 488.822 63.0031C489.725 65.15 490.177 67.9937 490.177 71.5341C490.177 75.0746 489.725 77.9183 488.822 80.0652C487.955 82.1745 486.505 83.7187 484.471 84.698C482.475 85.6396 479.782 86.1104 476.392 86.1104C473.078 86.1104 470.403 85.6396 468.37 84.698C466.373 83.7187 464.923 82.1745 464.019 80.0652C463.115 77.9183 462.663 75.0746 462.663 71.5341C462.663 67.9937 463.115 65.15 464.019 63.0031C464.923 60.8562 466.373 59.3119 468.37 58.3703C470.403 57.4287 473.078 56.9579 476.392 56.9579ZM476.392 62.1556C474.735 62.1556 473.417 62.4381 472.437 63.0031C471.496 63.5304 470.818 64.472 470.403 65.8279C469.989 67.1839 469.782 69.0859 469.782 71.5341C469.782 73.9824 469.989 75.8844 470.403 77.2404C470.818 78.5963 471.496 79.5379 472.437 80.0652C473.417 80.5925 474.735 80.8562 476.392 80.8562C478.087 80.8562 479.424 80.5925 480.403 80.0652C481.383 79.5379 482.061 78.5963 482.437 77.2404C482.852 75.8844 483.059 73.9824 483.059 71.5341C483.059 69.0859 482.852 67.1839 482.437 65.8279C482.061 64.472 481.383 63.5304 480.403 63.0031C479.424 62.4381 478.087 62.1556 476.392 62.1556ZM506.623 56.9579C507.903 56.9579 509.278 56.9955 510.747 57.0708C512.253 57.1462 513.722 57.2592 515.154 57.4098C516.585 57.5228 517.866 57.6923 518.995 57.9183L518.544 62.3816C516.736 62.3439 514.928 62.3063 513.12 62.2686C511.35 62.1933 509.598 62.1556 507.866 62.1556C506.321 62.1556 505.097 62.1933 504.193 62.2686C503.327 62.3439 502.705 62.5699 502.329 62.9466C501.99 63.3232 501.82 63.9635 501.82 64.8675C501.82 65.9597 502.122 66.6942 502.724 67.0709C503.327 67.4098 504.306 67.7488 505.662 68.0878L513.233 69.8392C515.493 70.4042 517.169 71.2705 518.261 72.4381C519.353 73.568 519.899 75.3195 519.899 77.6923C519.899 79.9899 519.466 81.7413 518.6 82.9466C517.771 84.1142 516.434 84.924 514.589 85.376C512.781 85.7903 510.464 85.9974 507.64 85.9974C506.547 85.9974 504.928 85.9409 502.781 85.828C500.634 85.7526 498.28 85.5078 495.719 85.0935L496.171 80.6302C496.924 80.6302 497.809 80.649 498.826 80.6867C499.881 80.7244 500.992 80.7432 502.159 80.7432C503.365 80.7432 504.589 80.7432 505.832 80.7432C507.828 80.7432 509.353 80.6867 510.408 80.5737C511.5 80.423 512.253 80.1406 512.668 79.7262C513.082 79.2743 513.289 78.634 513.289 77.8053C513.289 76.7507 512.931 76.0539 512.216 75.7149C511.538 75.3383 510.521 74.9805 509.165 74.6415L501.764 72.8336C500.069 72.3816 498.751 71.8166 497.809 71.1387C496.867 70.423 496.189 69.5567 495.775 68.5398C495.361 67.4852 495.154 66.2046 495.154 64.698C495.154 62.6641 495.53 61.0822 496.284 59.9522C497.075 58.8223 498.299 58.0313 499.956 57.5793C501.651 57.1273 503.873 56.9202 506.623 56.9579Z" fill="#9C9C9C"/>
</svg>
